<svg width="900" height="260" viewBox="0 0 900 260" fill="none" xmlns="http://www.w3.org/2000/svg" role="img" aria-label="Thozha Tech logo">
  <defs>
    <linearGradient id="g1" x1="60" y1="40" x2="210" y2="210" gradientUnits="userSpaceOnUse">
      <stop stop-color="#34D3FF"/>
      <stop offset="0.55" stop-color="#2563EB"/>
      <stop offset="1" stop-color="#0A1A2F"/>
    </linearGradient>
    <linearGradient id="g2" x1="105" y1="20" x2="205" y2="170" gradientUnits="userSpaceOnUse">
      <stop stop-color="#F8D36A"/>
      <stop offset="1" stop-color="#C8A96A"/>
    </linearGradient>
    <filter id="shadow" x="-20%" y="-20%" width="140%" height="140%">
      <feDropShadow dx="0" dy="16" stdDeviation="18" flood-color="#020617" flood-opacity="0.22"/>
    </filter>
  </defs>
  <g filter="url(#shadow)">
    <path d="M76 64L134 32L193 64V131C193 170 169 206 134 222C99 206 76 170 76 131V64Z" fill="#07152A" stroke="url(#g1)" stroke-width="10"/>
    <path d="M134 54L174 76V121C174 149 160 174 134 190V54Z" fill="url(#g2)"/>
    <path d="M94 80L134 58V190C109 174 94 149 94 121V80Z" fill="url(#g1)"/>
    <path d="M105 112H163" stroke="#EAF4FF" stroke-width="11" stroke-linecap="round"/>
    <circle cx="134" cy="112" r="18" fill="#07152A" stroke="#EAF4FF" stroke-width="10"/>
    <path d="M134 132V183" stroke="#EAF4FF" stroke-width="11" stroke-linecap="round"/>
  </g>
  <g>
    <text x="245" y="118" fill="#F8FAFC" font-family="Inter, Arial, sans-serif" font-size="62" font-weight="800" letter-spacing="-2">Thozha Tech</text>
    <text x="248" y="162" fill="#C8A96A" font-family="Inter, Arial, sans-serif" font-size="20" font-weight="700" letter-spacing="6">IDENTITY • ACCESS • TRUST</text>
  </g>
</svg>