<svg width="420" height="96" viewBox="0 0 420 96" fill="none" xmlns="http://www.w3.org/2000/svg" role="img" aria-labelledby="title desc">
  <title id="title">Thozha Tech Logo</title>
  <desc id="desc">Premium enterprise logo for Thozha Tech with TT monogram and identity ring.</desc>
  <defs>
    <linearGradient id="g1" x1="12" y1="8" x2="88" y2="88" gradientUnits="userSpaceOnUse">
      <stop stop-color="#8EDBFF"/>
      <stop offset="0.45" stop-color="#2F80ED"/>
      <stop offset="1" stop-color="#0A2540"/>
    </linearGradient>
    <linearGradient id="g2" x1="94" y1="14" x2="390" y2="82" gradientUnits="userSpaceOnUse">
      <stop stop-color="#F8FBFF"/>
      <stop offset="1" stop-color="#B7C8E8"/>
    </linearGradient>
    <filter id="shadow" x="0" y="0" width="110" height="110" filterUnits="userSpaceOnUse" color-interpolation-filters="sRGB">
      <feDropShadow dx="0" dy="10" stdDeviation="10" flood-color="#06152B" flood-opacity="0.28"/>
    </filter>
  </defs>
  <g filter="url(#shadow)">
    <path d="M48 6L86 22V50C86 72 69.5 87.8 48 92C26.5 87.8 10 72 10 50V22L48 6Z" fill="url(#g1)"/>
    <path d="M48 13.8L79 26.8V49.8C79 67.7 65.8 80.8 48 85C30.2 80.8 17 67.7 17 49.8V26.8L48 13.8Z" stroke="white" stroke-opacity="0.28" stroke-width="1.4"/>
    <circle cx="48" cy="48" r="24" stroke="white" stroke-opacity="0.32" stroke-width="2"/>
    <path d="M30 32H66V40H53V68H43V40H30V32Z" fill="white"/>
    <path d="M58 48H72V56H66V68H56V56H50V48H58Z" fill="white" fill-opacity="0.88"/>
  </g>
  <g>
    <text x="108" y="45" fill="url(#g2)" font-family="Inter, Segoe UI, Arial, sans-serif" font-size="32" font-weight="800" letter-spacing="1.3">THOZHA TECH</text>
    <text x="110" y="70" fill="#8DA6CB" font-family="Inter, Segoe UI, Arial, sans-serif" font-size="13" font-weight="600" letter-spacing="2.2">IDENTITY • ACCESS • TRUST</text>
  </g>
</svg>
